<svg xmlns:xlink="http://www.w3.org/1999/xlink" version="1.1" class="highcharts-root" style="font-family: &quot;Lucida Grande&quot;, &quot;Lucida Sans Unicode&quot;, Arial, Helvetica, sans-serif; font-size: 12px;" xmlns="http://www.w3.org/2000/svg" width="600" height="400" viewBox="0 0 600 400" role="img" aria-label="Employed and Office of Employment and Unemployment Statistics : Government -​Federal Government"><desc>Created with Highcharts 10.3.3</desc><defs><clipPath id="highcharts-tzmkzgs-41-"><rect x="1" y="0" width="476" height="262" fill="none"></rect></clipPath><clipPath id="highcharts-tzmkzgs-77-"><rect x="1" y="0" width="476" height="262" fill="none"></rect></clipPath></defs><rect fill="#fff" class="highcharts-background" x="0" y="0" width="600" height="400" rx="0" ry="0"></rect><rect fill="none" class="highcharts-plot-background" x="113" y="51" width="477" height="263"></rect><g class="highcharts-grid highcharts-xaxis-grid" data-z-index="1"><path fill="none" stroke="#e6e6e6" stroke-width="0" stroke-dasharray="none" data-z-index="1" class="highcharts-grid-line" d="M 117.5 51 L 117.5 314" opacity="1"></path><path fill="none" stroke="#e6e6e6" stroke-width="0" stroke-dasharray="none" data-z-index="1" class="highcharts-grid-line" d="M 198.5 51 L 198.5 314" opacity="1"></path><path fill="none" stroke="#e6e6e6" stroke-width="0" stroke-dasharray="none" data-z-index="1" class="highcharts-grid-line" d="M 282.5 51 L 282.5 314" opacity="1"></path><path fill="none" stroke="#e6e6e6" stroke-width="0" stroke-dasharray="none" data-z-index="1" class="highcharts-grid-line" d="M 363.5 51 L 363.5 314" opacity="1"></path><path fill="none" stroke="#e6e6e6" stroke-width="0" stroke-dasharray="none" data-z-index="1" class="highcharts-grid-line" d="M 447.5 51 L 447.5 314" opacity="1"></path><path fill="none" stroke="#e6e6e6" stroke-width="0" stroke-dasharray="none" data-z-index="1" class="highcharts-grid-line" d="M 529.5 51 L 529.5 314" opacity="1"></path></g><g class="highcharts-grid highcharts-yaxis-grid" data-z-index="1"><path fill="none" stroke="#e6e6e6" stroke-width="1" stroke-dasharray="1,3" data-z-index="1" class="highcharts-grid-line" d="M 113 314.5 L 590 314.5" opacity="1"></path><path fill="none" stroke="#e6e6e6" stroke-width="1" stroke-dasharray="1,3" data-z-index="1" class="highcharts-grid-line" d="M 113 261.5 L 590 261.5" opacity="1"></path><path fill="none" stroke="#e6e6e6" stroke-width="1" stroke-dasharray="1,3" data-z-index="1" class="highcharts-grid-line" d="M 113 209.5 L 590 209.5" opacity="1"></path><path fill="none" stroke="#e6e6e6" stroke-width="1" stroke-dasharray="1,3" data-z-index="1" class="highcharts-grid-line" d="M 113 156.5 L 590 156.5" opacity="1"></path><path fill="none" stroke="#e6e6e6" stroke-width="1" stroke-dasharray="1,3" data-z-index="1" class="highcharts-grid-line" d="M 113 104.5 L 590 104.5" opacity="1"></path><path fill="none" stroke="#e6e6e6" stroke-width="1" stroke-dasharray="1,3" data-z-index="1" class="highcharts-grid-line" d="M 113 50.5 L 590 50.5" opacity="1"></path></g><rect fill="none" class="highcharts-plot-border" data-z-index="1" stroke="#cccccc" stroke-width="0" x="113" y="51" width="477" height="263"></rect><g class="highcharts-axis highcharts-xaxis" data-z-index="2"><path fill="none" class="highcharts-tick" stroke="#ccd6eb" stroke-width="1" d="M 117.5 314 L 117.5 324" opacity="1"></path><path fill="none" class="highcharts-tick" stroke="#ccd6eb" stroke-width="1" d="M 198.5 314 L 198.5 324" opacity="1"></path><path fill="none" class="highcharts-tick" stroke="#ccd6eb" stroke-width="1" d="M 282.5 314 L 282.5 324" opacity="1"></path><path fill="none" class="highcharts-tick" stroke="#ccd6eb" stroke-width="1" d="M 363.5 314 L 363.5 324" opacity="1"></path><path fill="none" class="highcharts-tick" stroke="#ccd6eb" stroke-width="1" d="M 447.5 314 L 447.5 324" opacity="1"></path><path fill="none" class="highcharts-tick" stroke="#ccd6eb" stroke-width="1" d="M 529.5 314 L 529.5 324" opacity="1"></path><path fill="none" class="highcharts-axis-line" stroke="#ccd6eb" stroke-width="2" data-z-index="7" d="M 113 314 L 590 314"></path></g><g class="highcharts-axis highcharts-yaxis" data-z-index="2"><text x="23" data-z-index="7" text-anchor="middle" transform="translate(0,0) rotate(270 23 182.5)" class="highcharts-axis-title" y="182.5" style="color: rgb(0, 0, 0); font-family: Calibri, Verdana, Arial, Helvetica, sans-serif; font-weight: bold; background-color: rgb(255, 255, 255); font-size: 8pt; fill: rgb(0, 0, 0);">All Employees, In Thousands</text><path fill="none" class="highcharts-axis-line" stroke="#ccd6eb" stroke-width="2" data-z-index="7" d="M 113 51 L 113 314"></path></g><g class="highcharts-series-group" data-z-index="3"><g class="highcharts-series highcharts-series-0 highcharts-line-series highcharts-color-0" data-z-index="0.1" opacity="1" transform="translate(113,51) scale(1 1)" clip-path="url(#highcharts-tzmkzgs-77-)"><path fill="none" d="M 4.6764705882353 210.4 L 18.683290707587 236.7 L 31.334612105712 236.7 L 45.341432225064 236.7 L 58.89641943734 236.7 L 72.903239556692 236.7 L 86.458226768968 210.4 L 100.46504688832 184.1 L 114.47186700767 157.8 L 128.02685421995 157.8 L 142.0336743393 157.8 L 155.58866155158 157.8 L 169.59548167093 157.8 L 183.60230179028 157.8 L 196.25362318841 157.8 L 210.26044330776 131.5 L 223.81543052003 131.5 L 237.82225063939 157.8 L 251.37723785166 157.8 L 265.38405797101 131.5 L 279.39087809037 105.19999999999999 L 292.94586530264 78.9 L 306.95268542199 52.599999999999994 L 320.50767263427 78.9 L 334.51449275362 78.9 L 348.52131287298 78.9 L 361.62446717818 52.599999999999994 L 375.63128729753 52.599999999999994 L 389.1862745098 52.599999999999994 L 403.19309462916 52.599999999999994 L 416.74808184143 52.599999999999994 L 430.75490196078 78.9 L 444.76172208014 78.9 L 458.31670929241 78.9 L 472.32352941176 105.19999999999999" class="highcharts-graph" data-z-index="1" stroke="#99C971" stroke-width="2" stroke-linejoin="round" stroke-linecap="round"></path></g><g class="highcharts-markers highcharts-series-0 highcharts-line-series highcharts-color-0" data-z-index="0.1" opacity="1" transform="translate(113,51) scale(1 1)" clip-path="none"></g></g><g class="highcharts-exporting-group" data-z-index="3"><g class="highcharts-no-tooltip highcharts-button highcharts-contextbutton" stroke-linecap="round" transform="translate(565,375)" style="cursor: pointer;"><title>Export Chart</title><rect fill="#ffffff" class="highcharts-button-box" x="0.5" y="0.5" width="24" height="24" rx="2" ry="2" stroke="none" stroke-width="1"></rect><path fill="#666666" d="M 12 2 L 14 2 L 14 9 L 18 9 L 13 14 L 8 9 L 12 9 z M 3 16.9 L 3 21 L 22 21 L 22 17 L 22 17 L 22 21 L 3 21 L 3 16.9 z" class="highcharts-button-symbol" data-z-index="1" stroke="#666666" stroke-width="2"></path><text x="0" data-z-index="1" y="16.5" style="color: rgb(51, 51, 51); font-weight: normal; fill: rgb(51, 51, 51);"></text></g></g><text x="300" text-anchor="middle" class="highcharts-title" data-z-index="4" y="17" style="color: rgb(0, 0, 0); font-size: 8pt; font-family: Calibri, Verdana, Arial, Helvetica, sans-serif; font-weight: bold; background-color: rgb(255, 255, 255); fill: rgb(0, 0, 0);">Employed and Office of Employment and Unemployment Statistics : Government -<tspan dy="13" x="300">​</tspan>Federal Government</text><text x="300" text-anchor="middle" class="highcharts-subtitle" data-z-index="4" y="48" style="color: rgb(0, 0, 0); font-family: Calibri, Verdana, Arial, Helvetica, sans-serif; font-weight: bold; background-color: rgb(255, 255, 255); font-size: 8pt; fill: rgb(0, 0, 0);"></text><text x="10" text-anchor="start" class="highcharts-caption" data-z-index="4" y="397" style="color: rgb(102, 102, 102); fill: rgb(102, 102, 102);"></text><g class="highcharts-legend highcharts-no-tooltip" data-z-index="7" transform="translate(223,346)"><rect fill="none" class="highcharts-legend-box" rx="0" ry="0" stroke="#999999" stroke-width="0" x="0" y="0" width="153" height="24"></rect><g data-z-index="1"><g><g class="highcharts-legend-item highcharts-line-series highcharts-color-0 highcharts-series-0" data-z-index="1" transform="translate(8,3)"><path fill="none" class="highcharts-graph" stroke-width="2" stroke-linecap="round" d="M 1 10 L 15 10" stroke="#99C971"></path><text x="21" text-anchor="start" data-z-index="2" y="13" style="color: rgb(51, 51, 51); cursor: pointer; font-size: 10px; font-weight: bold; fill: rgb(51, 51, 51);">SMU48213409091000001</text></g></g></g></g><g class="highcharts-axis-labels highcharts-xaxis-labels" data-z-index="7"><text x="117.67647058824" text-anchor="middle" transform="translate(0,0)" y="333" opacity="1" style="color: rgb(102, 102, 102); cursor: default; font-size: 11px; fill: rgb(102, 102, 102);">Jan '22</text><text x="199.45822676897" text-anchor="middle" transform="translate(0,0)" y="333" opacity="1" style="color: rgb(102, 102, 102); cursor: default; font-size: 11px; fill: rgb(102, 102, 102);">Jul '22</text><text x="282.59548167093" text-anchor="middle" transform="translate(0,0)" y="333" opacity="1" style="color: rgb(102, 102, 102); cursor: default; font-size: 11px; fill: rgb(102, 102, 102);">Jan '23</text><text x="364.37723785166" text-anchor="middle" transform="translate(0,0)" y="333" opacity="1" style="color: rgb(102, 102, 102); cursor: default; font-size: 11px; fill: rgb(102, 102, 102);">Jul '23</text><text x="447.51449275362" text-anchor="middle" transform="translate(0,0)" y="333" opacity="1" style="color: rgb(102, 102, 102); cursor: default; font-size: 11px; fill: rgb(102, 102, 102);">Jan '24</text><text x="529.74808184143" text-anchor="middle" transform="translate(0,0)" y="333" opacity="1" style="color: rgb(102, 102, 102); cursor: default; font-size: 11px; fill: rgb(102, 102, 102);">Jul '24</text></g><g class="highcharts-axis-labels highcharts-yaxis-labels" data-z-index="7"><text x="98" text-anchor="end" transform="translate(0,0)" y="319" opacity="1" style="color: rgb(102, 102, 102); cursor: default; font-size: 11px; fill: rgb(102, 102, 102);">13</text><text x="98" text-anchor="end" transform="translate(0,0)" y="266" opacity="1" style="color: rgb(102, 102, 102); cursor: default; font-size: 11px; fill: rgb(102, 102, 102);">13.2</text><text x="98" text-anchor="end" transform="translate(0,0)" y="214" opacity="1" style="color: rgb(102, 102, 102); cursor: default; font-size: 11px; fill: rgb(102, 102, 102);">13.4</text><text x="98" text-anchor="end" transform="translate(0,0)" y="161" opacity="1" style="color: rgb(102, 102, 102); cursor: default; font-size: 11px; fill: rgb(102, 102, 102);">13.6</text><text x="98" text-anchor="end" transform="translate(0,0)" y="108" opacity="1" style="color: rgb(102, 102, 102); cursor: default; font-size: 11px; fill: rgb(102, 102, 102);">13.8</text><text x="98" text-anchor="end" transform="translate(0,0)" y="56" opacity="1" style="color: rgb(102, 102, 102); cursor: default; font-size: 11px; fill: rgb(102, 102, 102);">14</text></g><text x="10" class="highcharts-credits" text-anchor="start" data-z-index="8" y="385" style="cursor: default; color: rgb(0, 0, 0); font-size: 9px; fill: rgb(0, 0, 0);">Click and drag in the plot area to zoom in. Hover over chart to view data.<tspan class="highcharts-br" dy="12" x="10">​</tspan>Source: U.S. Bureau of Labor Statistics.</text></svg>